# xmcd
#
# Track frame offsets:
#	150
#	26495
#	40455
#	51720
#	65387
#	79370
#	94697
#	107645
#	118137
#	133077
#	150385
#	180300
#	195470
#
# Disc length: 2800 seconds
#
# Revision: 2
# Processed by: cddbd v1.5PL3 Copyright (c) Steve Scherf et al.
# Submitted via: dBpowerAMP V4.0
#
DISCID=af0aee0d
DTITLE=Louis Armstrong - The Best of the Decca Years - Volume 1
DYEAR=1900
DGENRE=blues
TTITLE0=On the Sunny Side of the Street
TTITLE1=That Lucky Old Sun
TTITLE2=Gone Fishin'
TTITLE3=A Kiss to Build a Dream On
TTITLE4=You Rascal You
TTITLE5=La Vie En Rose
TTITLE6=Blueberry Hill
TTITLE7=In the Shade of the Old Apple Tree
TTITLE8=The gypsy
TTITLE9=Lazy River
TTITLE10=I Surrender Dear
TTITLE11=It's All in the Game
TTITLE12=When It's Sleepy Time Down South
EXTD=
EXTT0=
EXTT1=
EXTT2=
EXTT3=
EXTT4=
EXTT5=
EXTT6=
EXTT7=
EXTT8=
EXTT9=
EXTT10=
EXTT11=
EXTT12=
PLAYORDER=
